<?xml version="1.0" encoding="UTF-8"?>
<svg width="464px" height="294px" viewBox="0 0 464 294" version="1.1" xmlns="http://www.w3.org/2000/svg" xmlns:xlink="http://www.w3.org/1999/xlink">
    <title>Untitled</title>
    <g id="Page-1" stroke="none" stroke-width="1" fill="none" fill-rule="evenodd">
        <g id="icons" transform="translate(0.000000, -0.000000)" fill="#39D353" fill-rule="nonzero">
            <g id="Group" transform="translate(232.000000, 147.000000) scale(-1, 1) rotate(-180.000000) translate(-232.000000, -147.000000) translate(0.000000, 0.000000)">
                <path d="M87.2,292.3 C86.2,291.3 66.1,258.9 42.6,220.2 L0,150 L0,146.7 C0,145 0.4,143 0.8,142.4 C2.2,140.1 47.3,112 49.4,112 C52.7,112 55.5,114.5 58.8,120.1 L61.7,125.1 L66.8,120.5 L71.9,115.9 L70.4,112.5 L69,109.1 L69,102.8 L69,96.5 L71.4,91.4 L73.7,86.4 L78.1,82.7 L82.4,79 L87.4,77.5 C90.1,76.7 93.6,76 95.1,76 L97.9,76 L99.4,70.7 C101.4,63.7 105.8,57.8 111.5,54.5 L116,51.8 L121.8,51.3 L127.6,50.8 L128.7,45.9 C129.4,43.2 131.3,39 133,36.5 L136.1,32 L140.5,29.4 L145,26.8 L151.5,25.7 L158,24.6 L158,22 C158.1,18.2 161.3,11.9 165.1,8.1 C166.9,6.2 170.7,3.6 173.5,2.4 L178.5,0 L183.5,0 C190.1,0 194.8,1.4 199.7,4.8 C201.9,6.3 208.1,12.6 213.5,18.8 L223.2,30.1 L224.8,28.8 C225.8,28.1 230.8,23.8 236.1,19.2 C241.4,14.7 248,10 250.6,8.8 L255.5,6.7 L261.7,6.7 L268,6.7 L273.6,9.5 L279.2,12.3 L282.4,16.7 C284.1,19.1 286,22.7 286.6,24.7 L287.6,28.2 L295.6,28.4 L303.5,28.6 L307,30.4 C314.2,34.2 319.8,41.3 321.4,48.6 L322.1,51.7 L328.3,52.2 C331.8,52.5 336,53.5 337.8,54.4 C342.8,57 347.9,61.9 350.2,66.4 L352.3,70.5 L352.8,77.1 L353.3,83.8 L357,84.9 C362.6,86.5 368.5,91.4 371.7,96.7 L374.5,101.5 L374.6,110.9 L374.7,120.3 L386.3,126.2 L397.9,132 L403.2,123.4 C406.1,118.7 409.3,114.2 410.4,113.4 C411.5,112.6 413.4,112 414.6,112 C416.7,112 457.4,137.3 461.8,141.3 L464,143.3 L464,146.7 L464,150 L421.4,220.2 C397.9,258.9 377.8,291.3 376.8,292.3 C375.7,293.2 373.5,294 372,294 L369.3,294 L346.4,279.5 C333.8,271.5 322.9,264.2 322.3,263.3 C320.2,260.5 320.9,256.8 324.5,251 C326.4,248.1 327.7,245.3 327.2,245 C326.8,244.6 324,243.3 320.9,242.1 L315.2,239.9 L305.6,243.9 C293.3,249.2 280.2,253.6 271.1,255.5 C267.1,256.3 260.1,257 255.5,257 L247.2,257 L238.7,252.5 L230.3,248.1 L225.1,250 L220,252 L212.7,252 C208.8,252 199.2,251.4 191.5,250.6 C178.2,249.2 158,248.5 144.2,248.8 L137.9,249 L140.5,252.7 C143.4,257.1 143.7,261 141.3,263.8 C140.3,264.9 129.4,272.1 117.1,279.9 L94.7,294 L91.9,294 C90.4,294 88.3,293.2 87.2,292.3 Z M110.7,265.7 L125,256.7 L124.2,255.5 C123.8,254.9 106.4,226.6 85.5,192.7 C64.6,158.7 47.2,131 46.7,131 C45.6,131 19.2,147.9 18.5,149.1 C18.1,149.6 35.1,178.3 56.2,212.9 L94.5,275.8 L95.5,275.3 C96,275 102.9,270.7 110.7,265.7 Z M407.9,212.7 C428.9,178.2 445.9,149.6 445.5,149.1 C444.8,147.9 418.4,131 417.3,131 C416.6,131 360.8,220.7 341.3,253.1 L339,256.8 L354.2,266.4 C362.5,271.6 369.5,275.9 369.6,275.7 C369.7,275.6 386.9,247.3 407.9,212.7 Z M263.9,241.5 C273.2,239.7 290.4,233.9 304,228.1 C309.1,225.8 313.9,224 314.6,224 C315.3,224 320.5,225.8 326.2,228 C331.8,230.2 336.5,231.8 336.5,231.7 C336.6,231.6 346.5,215.5 358.5,196 C370.5,176.5 382.5,157 385.2,152.8 L390,145 L377.2,138.6 L364.4,132.2 L322.4,168 C299.4,187.7 279.5,204.1 278.2,204.5 L275.9,205.1 L234.2,191 L192.5,176.9 L188.1,177.3 C183.1,177.8 179.5,180.2 176.2,185.1 L173.8,188.5 L174.2,193.6 L174.6,198.7 L176.9,201.9 L179.2,205.1 L206.9,219 C222.1,226.7 238.7,235.2 243.9,238 C249,240.7 253.8,243 254.5,243 C255.2,243 259.4,242.3 263.9,241.5 Z M190,227.5 L171.4,218.2 L167.7,214.4 C165.6,212.2 162.9,208.5 161.7,206 L159.5,201.5 L159.5,192.5 L159.5,183.5 L162.4,178.2 C165.8,172.2 170.1,168 176.3,164.8 L180.5,162.7 L188,162.3 L195.5,161.8 L235.1,175.3 L274.7,188.7 L316.2,153.1 C339.1,133.5 358.3,116.5 358.9,115.2 C359.5,113.9 360,111.3 360,109.4 L360,105.8 L356.6,102.4 L353.2,99 L348.6,99 L344.1,99 L310.1,128 L276.1,157 L273.3,157.6 L270.5,158.2 L267.7,156 L265,153.9 L265,150.6 C265,148.8 265.6,146.7 266.3,145.8 C266.9,144.9 282.4,131.5 300.5,116.1 C318.7,100.6 334.5,86.6 335.8,84.8 L338,81.7 L338,78.4 L338,75.1 L334.9,71.6 L331.8,68.1 L328.5,67.4 C326.7,67.1 324.2,67.1 323,67.5 C321.8,67.9 306.8,80.2 289.6,94.9 C272.5,109.6 257.4,122.3 256,123.3 C252.7,125.6 249.8,125.5 246.6,122.9 L244,120.9 L244,117.6 L244,114.3 L248.8,109.9 C251.4,107.5 265.1,95.6 279.2,83.6 L304.9,61.7 L306.1,58.9 L307.2,56 L306.6,52.7 L306,49.4 L303.2,46.7 C300.1,43.8 296.1,42.5 292.5,43.4 C291.1,43.7 276.9,55.3 260.8,69 L231.5,94 L227.9,94 L224.3,94 L222.6,92.1 L220.9,90.2 L221.2,86.4 L221.5,82.5 L246.5,61 L271.5,39.5 L272.5,35.6 L273.4,31.8 L271.5,28.1 L269.5,24.5 L265.8,22.7 L262,20.8 L258.6,22 L255.2,23.1 L243.7,33 L232.2,42.9 L232.7,49.3 L233.3,55.7 L231.5,61.1 L229.7,66.4 L225,71.1 L220.2,75.8 L214.9,77.4 C212,78.3 208.4,79 206.8,79 L204,79 L204,82.3 C204,86.2 201.2,92.4 197.6,96.7 C196.2,98.4 192.6,101 189.8,102.4 L184.6,105 L180.8,105 L177,105 L177,108.4 C177,116 171.4,125.5 164.6,129.5 C162.3,130.9 157.9,132.5 154.8,133.1 L149.4,134.2 L143.4,132.7 L137.5,131.1 L136.5,132.7 C136,133.6 134.1,136.1 132.5,138.4 L129.5,142.4 L124.1,145.2 L118.8,148 L111.6,148 L104.4,148 L99.2,145.4 L94,142.8 L87.6,135.5 L81.2,128.1 L75.6,133.3 L69.9,138.5 L99.3,186 L128.6,233.5 L144.6,233.6 C165.2,233.8 192,235 199,235.9 C202,236.4 205.4,236.801749 206.5,236.801749 C207.6,236.9 200.2,232.7 190,227.5 Z M117.8,131.4 C120.8,129.3 123,124.8 123,120.6 L123,117 L117.3,110.3 C114.2,106.5 109.6,101.1 107.1,98.3 L102.7,93 L99.3,91.9 L96,90.8 L93,91.5 L90.1,92.1 L87,95.6 L84,99.1 L84,102.6 C84,104.5 84.5,107.1 85.2,108.3 C86.8,111.3 103.7,130.7 105.8,131.9 C106.7,132.5 109.3,133 111.5,133 L115.6,133 L117.8,131.4 Z M154.5,117.6 L158,116.1 L160,112.8 C162.2,109.1 162.6,104.9 160.8,101.7 C158.9,98 135.1,70.6 131.8,68.3 L128.7,66 L124.9,66 L121.2,66 L118.1,68.5 C114.6,71.5 112.6,76.7 113.6,80.4 C113.9,81.9 120.5,90.3 128.1,99.3 C140.9,114.1 146.2,119 149.8,119 C150.5,119 152.6,118.4 154.5,117.6 Z M183,88.5 C186.6,86.6 189,82.3 189,77.6 L189,74.2 L186.3,70.8 C177.5,60.1 165.3,46.1 162.8,43.9 C161.2,42.4 158.5,40.9 156.9,40.6 L153.9,40 L150.5,41.5 L147,42.9 L145,46.2 C142.6,50.2 142.4,54.7 144.7,58 C147.6,62.4 169.1,87 171.3,88.5 C174.1,90.4 179.3,90.4 183,88.5 Z M214.7,59.6 L218,56 L218,52.2 L218,48.4 L215.8,45.4 C209.3,36.8 191.7,17.2 189.5,16.2 C188.1,15.5 185.7,15 184.2,15 C180.9,15 176.1,18 174.4,21.2 C172.7,24.1 172.6,29.5 174.2,32.3 C176.2,36.1 198.3,61.1 201,62.6 L203.5,64 L207.5,63.6 L211.5,63.1 L214.7,59.6 Z" id="Shape"></path>
            </g>
        </g>
    </g>
</svg>